<svg width="180" height="62" viewBox="0 0 180 62" fill="none" xmlns="http://www.w3.org/2000/svg">
<path d="M21.0243 46L5.98425 5.936H5.72825C5.81358 6.78933 5.87758 7.87733 5.92025 9.2C6.00558 10.5227 6.06958 11.9733 6.11225 13.552C6.15492 15.088 6.17625 16.6667 6.17625 18.288V46H0.86425V0.303997H9.37625L23.4563 37.744H23.7123L38.0483 0.303997H46.4963V46H40.8003V17.904C40.8003 16.4107 40.8216 14.9387 40.8643 13.488C40.9069 11.9947 40.9709 10.608 41.0563 9.328C41.1416 8.00533 41.2056 6.896 41.2483 6H40.9923L25.7603 46H21.0243ZM52.2828 11.696H58.2988L65.7228 31.216C66.1494 32.368 66.5334 33.4773 66.8748 34.544C67.2588 35.6107 67.6001 36.656 67.8988 37.68C68.1974 38.6613 68.4321 39.6213 68.6028 40.56H68.8588C69.1148 39.4933 69.5201 38.1067 70.0748 36.4C70.6294 34.6507 71.2054 32.9013 71.8028 31.152L78.7788 11.696H84.8588L70.0748 50.736C69.2641 52.8693 68.3041 54.7253 67.1948 56.304C66.1281 57.9253 64.8054 59.1627 63.2268 60.016C61.6908 60.912 59.8134 61.36 57.5948 61.36C56.5708 61.36 55.6748 61.296 54.9068 61.168C54.1388 61.0827 53.4774 60.976 52.9228 60.848V56.368C53.3921 56.4533 53.9468 56.5387 54.5868 56.624C55.2694 56.7093 55.9734 56.752 56.6988 56.752C58.0214 56.752 59.1521 56.496 60.0908 55.984C61.0721 55.5147 61.9041 54.8107 62.5868 53.872C63.2694 52.976 63.8454 51.9093 64.3148 50.672L66.1068 46.128L52.2828 11.696ZM102.648 0.303997C108.621 0.303997 112.973 1.47733 115.704 3.824C118.434 6.17066 119.8 9.47733 119.8 13.744C119.8 15.6213 119.48 17.4347 118.84 19.184C118.242 20.8907 117.24 22.4267 115.832 23.792C114.424 25.1573 112.546 26.2453 110.2 27.056C107.853 27.824 104.973 28.208 101.56 28.208H96.3118V46H90.5518V0.303997H102.648ZM102.136 5.232H96.3118V23.28H100.92C103.821 23.28 106.232 22.9813 108.152 22.384C110.072 21.744 111.501 20.7413 112.44 19.376C113.378 18.0107 113.848 16.2187 113.848 14C113.848 11.056 112.909 8.85867 111.032 7.408C109.154 5.95733 106.189 5.232 102.136 5.232ZM141.282 11.056C144.226 11.056 146.743 11.696 148.834 12.976C150.967 14.256 152.588 16.0693 153.698 18.416C154.85 20.72 155.426 23.4293 155.426 26.544V29.936H131.938C132.023 33.8187 133.004 36.784 134.882 38.832C136.802 40.8373 139.468 41.84 142.882 41.84C145.058 41.84 146.978 41.648 148.642 41.264C150.348 40.8373 152.098 40.24 153.89 39.472V44.4C152.14 45.168 150.412 45.7227 148.706 46.064C146.999 46.448 144.972 46.64 142.626 46.64C139.383 46.64 136.503 45.9787 133.986 44.656C131.511 43.3333 129.57 41.3707 128.162 38.768C126.796 36.1227 126.114 32.9013 126.114 29.104C126.114 25.3493 126.732 22.128 127.97 19.44C129.25 16.752 131.02 14.6827 133.282 13.232C135.586 11.7813 138.252 11.056 141.282 11.056ZM141.218 15.664C138.53 15.664 136.396 16.5387 134.818 18.288C133.282 19.9947 132.364 22.384 132.066 25.456H149.538C149.538 23.4933 149.239 21.7867 148.642 20.336C148.044 18.8853 147.127 17.7547 145.89 16.944C144.695 16.0907 143.138 15.664 141.218 15.664ZM175.115 42.032C175.968 42.032 176.843 41.968 177.739 41.84C178.635 41.6693 179.36 41.4987 179.915 41.328V45.616C179.317 45.9147 178.464 46.1493 177.355 46.32C176.245 46.5333 175.179 46.64 174.155 46.64C172.363 46.64 170.699 46.3413 169.163 45.744C167.669 45.104 166.453 44.016 165.515 42.48C164.576 40.944 164.107 38.7893 164.107 36.016V16.048H159.243V13.36L164.171 11.12L166.411 3.824H169.739V11.696H179.659V16.048H169.739V35.888C169.739 37.9787 170.229 39.536 171.211 40.56C172.235 41.5413 173.536 42.032 175.115 42.032Z" fill="#000AFF"/>
</svg>
